<svg xmlns="http://www.w3.org/2000/svg" viewBox="0 0 310 80">
  <g fill="none" fill-rule="evenodd">
    <g fill="#E34526" fill-rule="nonzero" transform="translate(85.424 40.678)">
      <path d="M15.1945763 14.7023729L11.2569492 5.00610169 11.1959322 5.00610169 7.19186441 14.7023729 15.1945763 14.7023729zM10.0623729 1.30305085L12.6522034 1.30305085 21.7071186 22.4325424 18.359322 22.4325424 16.2427119 17.2135593 6.18169492 17.2135593 4.09220339 22.4325424.745762712 22.4325424 10.0623729 1.30305085zM38.4135593 5.87118644C37.2122034 4.32135593 35.2474576 3.44813559 33.300339 3.44813559 28.5545763 3.44813559 25.4250847 7.2420339 25.4250847 12.0488136 25.4250847 16.4962712 28.3755932 20.2874576 33.300339 20.2874576 35.7220339 20.2874576 37.5715254 19.2149153 38.8230508 17.4549153L41.2461017 19.2705085C40.6142373 20.1423729 38.0813559 22.9681356 33.2433898 22.9681356 26.5233898 22.9681356 22.3769492 17.3654237 22.3769492 12.0488136 22.3769492 5.4779661 26.8854237.766101695 33.3884746.766101695 36.1694915.766101695 39.0928814 1.81423729 40.7986441 4.05423729L38.4135593 5.87118644zM58.8176271 5.87118644C57.6149153 4.32135593 55.6542373 3.44813559 53.7057627 3.44813559 48.96 3.44813559 45.8305085 7.2420339 45.8305085 12.0488136 45.8305085 16.4962712 48.7823729 20.2874576 53.7057627 20.2874576 56.1274576 20.2874576 57.9783051 19.2149153 59.2298305 17.4549153L61.6528814 19.2705085C61.0237288 20.1423729 58.4867797 22.9681356 53.6461017 22.9681356 46.9301695 22.9681356 42.7837288 17.3654237 42.7837288 12.0488136 42.7837288 5.4779661 47.2949153.766101695 53.7952542.766101695 56.5762712.766101695 59.4983051 1.81423729 61.2040678 4.05423729L58.8176271 5.87118644zM82.1640678 11.8698305C82.1640678 7.2420339 79.0345763 3.44813559 74.200678 3.44813559 69.3586441 3.44813559 66.2277966 7.2420339 66.2277966 11.8698305 66.2277966 16.4962712 69.3586441 20.2874576 74.200678 20.2874576 79.0345763 20.2874576 82.1640678 16.4962712 82.1640678 11.8698305M63.1783051 11.8698305C63.1783051 5.6040678 67.7491525.767457627 74.200678.767457627 80.6440678.767457627 85.2122034 5.6040678 85.2122034 11.8698305 85.2122034 18.1342373 80.6440678 22.9694915 74.200678 22.9694915 67.7491525 22.9694915 63.1783051 18.1342373 63.1783051 11.8698305M91.9064407 1.30305085L91.9064407 14.2562712C91.9064407 16.8827119 93.2216949 20.2874576 97.2216949 20.2874576 101.213559 20.2874576 102.530169 16.8827119 102.530169 14.2562712L102.530169 1.30305085 105.39661 1.30305085 105.39661 14.7023729C105.39661 19.6054237 101.845424 22.9694915 97.2216949 22.9694915 92.5857627 22.9694915 89.0386441 19.6054237 89.0386441 14.7023729L89.0386441 1.30305085 91.9064407 1.30305085z"/>
      <polygon points="110.525 1.303 114.286 1.303 125.934 18.678 125.989 18.678 125.989 1.303 128.857 1.303 128.857 22.433 125.215 22.433 113.456 5.066 113.393 5.066 113.393 22.433 110.525 22.433"/>
      <polygon points="138.687 3.985 131.885 3.985 131.885 1.303 148.359 1.303 148.359 3.985 141.558 3.985 141.558 22.433 138.687 22.433"/>
      <path d="M161.256949,14.7023729 L157.315254,5.00610169 L157.254237,5.00610169 L153.256949,14.7023729 L161.256949,14.7023729 Z M156.124746,1.30305085 L158.718644,1.30305085 L167.765424,22.4325424 L164.418983,22.4325424 L162.302373,17.2135593 L152.244068,17.2135593 L150.151864,22.4325424 L146.804068,22.4325424 L156.124746,1.30305085 Z"/>
      <polygon points="170.625 1.303 174.386 1.303 186.03 18.678 186.085 18.678 186.085 1.303 188.951 1.303 188.951 22.433 185.308 22.433 173.557 5.066 173.493 5.066 173.493 22.433 170.625 22.433"/>
      <polygon points="198.788 3.985 191.981 3.985 191.981 1.303 208.458 1.303 208.458 3.985 201.657 3.985 201.657 22.433 198.788 22.433"/>
      <path d="M212.336271,18.0216949 C213.350508,19.5728814 215.115932,20.2874576 216.816271,20.2874576 C218.691525,20.2874576 221.025085,19.0942373 221.025085,16.7633898 C221.025085,11.8955932 210.60339,14.9098305 210.60339,6.67661017 C210.60339,4.19932203 212.694237,0.766101695 217.770847,0.766101695 C220.069153,0.766101695 222.282034,1.2420339 223.861695,3.18237288 L221.530847,5.29898305 C220.810847,4.19932203 219.410169,3.44813559 217.770847,3.44813559 C214.607458,3.44813559 213.650169,5.36542373 213.650169,6.67661017 C213.650169,12.0149153 224.07322,8.82711864 224.07322,16.4420339 C224.07322,20.5301695 220.783729,22.9681356 216.724068,22.9681356 C214.00678,22.9681356 211.416949,22.0433898 209.976949,20.0474576 L212.336271,18.0216949 Z"/>
    </g>
    <path fill="#54BDD7" fill-rule="nonzero" d="M103.572881 20.4786441C102.375593 18.9301695 100.408136 18.0637288 98.4677966 18.0637288 93.7233898 18.0637288 90.5884746 21.8576271 90.5884746 26.660339 90.5884746 31.1105085 93.5389831 34.9030508 98.4677966 34.9030508 100.885424 34.9030508 102.738983 33.8223729 103.994576 32.0623729L106.409492 33.8861017C105.781695 34.7511864 103.244746 37.5837288 98.4054237 37.5837288 91.6908475 37.5837288 87.5376271 31.9715254 87.5376271 26.660339 87.5376271 20.0881356 92.0528814 15.3735593 98.5559322 15.3735593 101.338305 15.3735593 104.260339 16.4189831 105.960678 18.6630508L103.572881 20.4786441zM112.530169 25.2230508L116.292881 25.2230508C118.56 25.2230508 120.833898 24.6874576 120.833898 21.8277966 120.833898 18.9613559 118.56 18.420339 116.292881 18.420339L112.530169 18.420339 112.530169 25.2230508zM109.659661 15.9105085L117.095593 15.9105085C122.498983 15.9105085 123.872542 19.1633898 123.872542 21.8277966 123.872542 24.5152542 121.879322 27.0481356 118.679322 27.4101695L124.675254 37.0481356 121.099661 37.0481356 115.722034 27.7328814 112.530169 27.7328814 112.530169 37.0481356 109.659661 37.0481356 109.659661 15.9105085zM145.480678 26.4854237C145.480678 21.8562712 142.347119 18.0637288 137.514576 18.0637288 132.67661 18.0637288 129.548475 21.8562712 129.548475 26.4854237 129.548475 31.1091525 132.67661 34.9016949 137.514576 34.9016949 142.347119 34.9016949 145.480678 31.1091525 145.480678 26.4854237M126.497627 26.4854237C126.497627 20.2074576 131.067119 15.3749153 137.514576 15.3749153 143.955254 15.3749153 148.531525 20.2074576 148.531525 26.4854237 148.531525 32.7484746 143.955254 37.5837288 137.514576 37.5837288 131.067119 37.5837288 126.497627 32.7484746 126.497627 26.4854237"/>
    <polygon fill="#54BDD7" fill-rule="nonzero" points="152.678 15.911 165.967 15.911 165.967 18.599 155.548 18.599 155.548 25.223 165.246 25.223 165.246 27.916 155.548 27.916 155.548 37.048 152.678 37.048"/>
    <polygon fill="#54BDD7" fill-rule="nonzero" points="174.899 18.599 168.098 18.599 168.098 15.911 184.576 15.911 184.576 18.599 177.767 18.599 177.767 37.047 174.899 37.047"/>
    <polygon fill="#54BDD7" fill-rule="nonzero" points="190.058 23.252 187.726 23.252 187.726 15.911 190.058 15.911"/>
    <path fill="#54BDD7" fill-rule="nonzero" d="M194.336271 32.6345763C195.349153 34.180339 197.109153 34.9030508 198.812203 34.9030508 200.688814 34.9030508 203.023729 33.7071186 203.023729 31.3789831 203.023729 26.5098305 192.59661 29.5267797 192.59661 21.2908475 192.59661 18.8067797 194.688814 15.3749153 199.765424 15.3749153 202.062373 15.3749153 204.279322 15.8508475 205.860339 17.7979661L203.528136 19.9145763C202.809492 18.8067797 201.410169 18.0637288 199.765424 18.0637288 196.600678 18.0637288 195.647458 19.9783051 195.647458 21.2908475 195.647458 26.6291525 206.066441 23.4427119 206.066441 31.0522034 206.066441 35.1376271 202.779661 37.5837288 198.717288 37.5837288 196.001356 37.5837288 193.410169 36.6589831 191.976949 34.6616949L194.336271 32.6345763zM79.0359322 39.5145763C79.0359322 61.3437288 61.3383051 79.0318644 39.5118644 79.0318644 17.6976271 79.0318644 0 61.3437288 0 39.5145763 0 17.6894915 17.6976271 0 39.5118644 0 61.3383051 0 79.0359322 17.6894915 79.0359322 39.5145763"/>
    <polygon fill="#E34526" fill-rule="nonzero" points="54.645 68.674 18.526 47.818 18.526 31.212 54.645 52.064"/>
    <polygon fill="#FEFEFE" fill-rule="nonzero" points="54.645 10.357 18.526 31.212 18.526 47.818 54.645 26.965"/>
  </g>
</svg>
